# xmcd
#
# Track frame offsets:
#  150
#  15670
#  28908
#  40253
#  53844
#
# Disc length: 914 seconds
#
# Revision: 0
# Processed by: cddbd v1.5.1PL2 Copyright (c) Steve Scherf et al.
# Submitted via: Collectorz.com_Music_Collector 6.11
#
DISCID=39039005
DTITLE=Dave Arcari - Dave Arcari Vols. 1 and 2 [CD2)
DYEAR=2006
DGENRE=Blues
TTITLE0=Come With Me
TTITLE1=Texicalli Waltz
TTITLE2=One Side Blind
TTITLE3=Red Letter Blues
TTITLE4=Bound To Ride
EXTD=
EXTT0=
EXTT1=
EXTT2=
EXTT3=
EXTT4=
PLAYORDER=
